<?xml version="1.0" encoding="UTF-8" standalone="no"?>
<!DOCTYPE svg PUBLIC "-//W3C//DTD SVG 1.1//EN" "http://www.w3.org/Graphics/SVG/1.1/DTD/svg11.dtd">
<svg width="100%" height="100%" viewBox="0 0 1000 1000" version="1.1" xmlns="http://www.w3.org/2000/svg" xmlns:xlink="http://www.w3.org/1999/xlink" xml:space="preserve" style="fill-rule:evenodd;clip-rule:evenodd;stroke-linejoin:round;stroke-miterlimit:1.41421;">
    <path d="M195.3,607.383C192.696,604.779 192.696,602.175 195.3,599.571C200.508,594.363 207.018,592.41 214.83,593.712C222.642,595.014 227.199,596.316 228.501,597.618C237.615,601.524 247.705,610.313 258.772,623.984C269.839,637.655 278.627,647.095 285.138,652.303C316.386,678.343 348.285,680.296 380.835,658.162C383.439,649.048 387.67,641.236 393.529,634.726C399.388,628.216 404.921,623.659 410.13,621.055C415.339,618.451 424.453,614.545 437.472,609.337C394.506,605.431 359.677,597.944 332.986,586.877C306.295,575.81 285.137,561.813 269.513,544.888C248.681,521.452 235.986,490.855 231.429,453.097C226.872,415.339 229.801,380.836 240.218,349.588C248.03,330.058 259.097,312.481 273.419,296.857C263.003,264.307 264.956,227.2 279.278,185.536C320.942,188.14 358.7,202.462 392.552,228.502C457.652,211.576 525.356,210.925 595.664,226.549C604.778,220.039 618.774,211.901 637.653,202.136C656.532,192.371 680.293,186.837 708.938,185.535C714.146,199.857 717.727,216.783 719.68,236.313C721.633,255.843 720.657,274.071 716.751,290.997C746.697,322.245 762.321,363.909 763.623,415.989C763.623,457.653 756.462,492.156 742.14,519.498C727.818,546.84 702.429,569.625 665.973,587.853C641.235,599.571 608.685,606.732 568.323,609.336C586.551,618.45 599.897,627.89 608.36,637.655C616.823,647.42 622.357,662.719 624.961,683.55L624.961,745.07C627.565,806.915 628.216,826.77 626.914,804.637C630.82,811.147 635.377,816.681 640.585,821.238C645.793,825.795 650.35,829.05 654.256,831.003C658.162,832.956 659.464,835.885 658.162,839.792C656.86,843.699 651.652,845.652 642.538,845.651C620.404,845.651 602.827,837.839 589.807,822.215C585.901,815.705 583.948,807.893 583.948,798.779L583.948,705.035C583.948,694.619 581.344,687.132 576.136,682.575C570.928,678.018 565.72,675.088 560.512,673.786L560.512,796.825C560.512,818.959 563.116,833.281 568.324,839.791C573.532,846.301 576.787,852.811 578.089,859.321C579.391,860.623 578.415,861.599 575.16,862.25C571.905,862.901 566.372,861.924 558.559,859.321C541.633,855.415 529.915,846.626 523.405,832.955C516.895,819.284 513.64,804.636 513.64,789.012L513.64,667.926L488.251,667.926L488.251,789.012C488.251,804.636 484.996,819.609 478.486,833.931C469.372,852.159 452.446,861.924 427.708,863.226C423.802,861.924 421.849,860.622 421.849,859.32C423.151,858.018 427.057,851.508 433.567,839.79C434.869,837.186 436.497,831.978 438.45,824.166C440.403,816.354 441.38,807.24 441.379,796.824L441.379,673.785C436.171,675.087 431.288,678.017 426.731,682.574C422.174,687.131 419.895,694.618 419.895,705.034L419.895,798.778C419.895,807.892 417.942,815.704 414.036,822.214C402.318,837.838 384.741,845.65 361.305,845.65C352.191,845.65 346.983,843.697 345.681,839.791C344.379,837.187 344.705,834.908 346.658,832.955C348.611,831.002 351.541,828.723 355.447,826.119C359.353,823.515 361.957,821.562 363.259,820.26C368.467,816.354 372.373,811.146 374.977,804.636C378.883,799.428 379.859,785.757 377.906,763.623C375.953,741.489 375.627,727.167 376.929,720.657C343.077,732.375 308.574,726.516 273.42,703.08C263.004,692.664 252.588,677.691 242.172,658.161C234.36,643.839 218.736,626.913 195.3,607.383L195.3,607.383Z" style="fill:rgb(112,112,112);fill-rule:nonzero;"/>
</svg>
