<?xml version="1.0" encoding="UTF-8" standalone="no"?><!DOCTYPE svg PUBLIC "-//W3C//DTD SVG 1.1//EN" "http://www.w3.org/Graphics/SVG/1.1/DTD/svg11.dtd"><svg width="100%" height="100%" viewBox="0 0 670 400" version="1.1" xmlns="http://www.w3.org/2000/svg" xmlns:xlink="http://www.w3.org/1999/xlink" xml:space="preserve" style="fill-rule:evenodd;clip-rule:evenodd;stroke-linecap:square;stroke-linejoin:round;stroke-miterlimit:1.5;"><g><g><path d="M29.179,393.028l614.47,0.057" style="fill:none;stroke:#8f8f8f;stroke-width:6px;"/><rect x="22.652" y="378.154" width="627.312" height="10.621" style="fill:#8f8f8f;stroke:#8f8f8f;stroke-width:6px;"/><path d="M14.762,381.354l11.31,10.51" style="fill:none;stroke:#8f8f8f;stroke-width:6px;"/><path d="M646.826,391.864l11.311,-10.51" style="fill:none;stroke:#8f8f8f;stroke-width:6px;"/></g><path d="M617.223,18.184c0,-7.79 -6.325,-14.114 -14.115,-14.114l-532.39,0c-7.79,0 -14.115,6.324 -14.115,14.114l0,337.428c0,7.79 6.325,14.115 14.115,14.115l532.39,0c7.79,0 14.115,-6.325 14.115,-14.115l0,-337.428Z" style="fill:#1e1e1e;"/><rect x="10.359" y="361.51" width="651.875" height="20.309" style="fill:#d2d2d2;"/><rect x="38.539" y="361.51" width="595.562" height="20.573" style="fill:#ababab;"/><g><rect x="73.15" y="23.445" width="529.583" height="23.779" style="fill:#d2d2d2;"/><g><path d="M85.638,34.499c0,-1.385 -1.124,-2.51 -2.509,-2.51l-5.02,0c-1.385,0 -2.51,1.125 -2.51,2.51l0,5.828c0,1.385 1.125,2.509 2.51,2.509l5.02,0c1.385,0 2.509,-1.124 2.509,-2.509l0,-5.828Z" style="fill:#e9e9e9;"/><path d="M98.136,34.499c0,-1.385 -1.125,-2.51 -2.51,-2.51l-5.019,0c-1.385,0 -2.51,1.125 -2.51,2.51l0,5.828c0,1.385 1.125,2.509 2.51,2.509l5.019,0c1.385,0 2.51,-1.124 2.51,-2.509l0,-5.828Z" style="fill:#e9e9e9;"/></g><path d="M457.255,34.789c0,-1.454 -1.181,-2.635 -2.635,-2.635l-348.897,0c-1.454,0 -2.635,1.181 -2.635,2.635l0,5.271c0,1.455 1.181,2.636 2.635,2.636l348.897,0c1.454,0 2.635,-1.181 2.635,-2.636l0,-5.271Z" style="fill:#fff;"/><path d="M596.163,34.063c0,-1.458 -1.183,-2.641 -2.641,-2.641l-123.458,0c-1.457,0 -2.641,1.183 -2.641,2.641l0,5.281c0,1.458 1.184,2.641 2.641,2.641l123.458,0c1.458,0 2.641,-1.183 2.641,-2.641l0,-5.281Z" style="fill:#fff;"/><g><circle cx="90.269" cy="27.515" r="1.781" style="fill:#14ff00;"/><circle cx="84.092" cy="27.515" r="1.781" style="fill:#f0ff00;"/><circle cx="77.646" cy="27.515" r="1.781" style="fill:#ff0010;"/></g></g></g></svg>