<?xml version="1.0" encoding="UTF-8" standalone="no"?>
<!DOCTYPE svg PUBLIC "-//W3C//DTD SVG 1.1//EN" "http://www.w3.org/Graphics/SVG/1.1/DTD/svg11.dtd">
<svg width="100%" height="100%" viewBox="0 0 76 76" version="1.1" xmlns="http://www.w3.org/2000/svg" xmlns:xlink="http://www.w3.org/1999/xlink" xml:space="preserve" style="fill-rule:evenodd;clip-rule:evenodd;stroke-linejoin:round;stroke-miterlimit:1.41421;">
    <g transform="matrix(0.429536,0,0,0.429536,-334.357,-779.882)">
        <g>
            <g>
                <g transform="matrix(1,0,0,1,817.707,1848.22)">
                    <path d="M90.474,5.04L61.789,5.04C59.489,5.04 57.625,6.904 57.625,9.204C57.625,11.504 59.489,13.368 61.789,13.368L80.884,13.368L40.02,54.232C38.393,55.858 38.393,58.495 40.02,60.121C40.833,60.934 41.899,61.341 42.964,61.341C44.029,61.341 45.095,60.934 45.908,60.121L86.31,19.718L86.31,37.888C86.31,40.188 88.174,42.052 90.474,42.052C92.774,42.052 94.638,40.188 94.638,37.888L94.638,9.204C94.638,6.904 92.774,5.04 90.474,5.04Z" style="fill:rgb(112,112,112);fill-rule:nonzero;"/>
                </g>
                <g transform="matrix(1,0,0,1,817.707,1848.22)">
                    <path d="M76.071,46.976C73.771,46.976 71.907,48.84 71.907,51.14L71.907,83.992C71.907,85.497 70.636,86.768 69.131,86.768L16.041,86.768C14.536,86.768 13.265,85.497 13.265,83.992L13.265,30.902C13.265,29.397 14.536,28.126 16.041,28.126L49.009,28.126C51.309,28.126 53.173,26.262 53.173,23.962C53.173,21.662 51.309,19.798 49.009,19.798L16.041,19.798C9.918,19.798 4.937,24.779 4.937,30.902L4.937,83.992C4.937,90.115 9.918,95.096 16.041,95.096L69.131,95.096C75.254,95.096 80.235,90.115 80.235,83.992L80.235,51.14C80.235,48.841 78.371,46.976 76.071,46.976Z" style="fill:rgb(112,112,112);fill-rule:nonzero;"/>
                </g>
            </g>
        </g>
    </g>
</svg>
