<?xml version="1.0" encoding="UTF-8" standalone="no"?>
<!DOCTYPE svg PUBLIC "-//W3C//DTD SVG 1.1//EN" "http://www.w3.org/Graphics/SVG/1.1/DTD/svg11.dtd">
<svg width="100%" height="100%" viewBox="0 0 50 50" version="1.1" xmlns="http://www.w3.org/2000/svg" xmlns:xlink="http://www.w3.org/1999/xlink" xml:space="preserve" style="fill-rule:evenodd;clip-rule:evenodd;stroke-linecap:round;stroke-linejoin:round;stroke-miterlimit:1.5;">
    <g transform="matrix(1.33516,0,0,1.33516,-21.3893,-19.6189)">
        <g transform="matrix(1,0,0,1,5.121,5.38538)">
            <path d="M19.945,19.02L19.945,35.511" style="fill:none;stroke:white;stroke-width:1.12px;"/>
        </g>
        <path d="M25.073,24.292C25.014,20.358 26.633,17.796 29.944,16.616C31.23,16.158 32.772,15.908 34.569,15.868" style="fill:none;stroke:white;stroke-width:1.12px;"/>
        <g transform="matrix(1,0,0,-1,0,64.9246)">
            <path d="M25.073,24.292C24.991,18.83 28.144,16.012 34.569,15.868" style="fill:none;stroke:white;stroke-width:1.12px;"/>
        </g>
        <g transform="matrix(-1,0,0,-1,64.0477,59.5392)">
            <path d="M19.945,19.02L19.945,35.511" style="fill:none;stroke:white;stroke-width:1.12px;"/>
        </g>
        <g transform="matrix(-1,0,0,-1,69.1686,64.9246)">
            <path d="M25.073,24.292C24.991,18.83 28.144,16.012 34.569,15.868" style="fill:none;stroke:white;stroke-width:1.12px;"/>
        </g>
        <g transform="matrix(-1,0,0,1,69.1686,0)">
            <path d="M25.073,24.292C24.991,18.83 28.144,16.012 34.569,15.868" style="fill:none;stroke:white;stroke-width:1.12px;"/>
        </g>
        <path d="M34.728,20.14L34.728,24.494" style="fill:none;stroke:white;stroke-width:1.12px;"/>
    </g>
</svg>
